<?xml version="1.0" standalone="no"?>
<!DOCTYPE svg PUBLIC "-//W3C//DTD SVG 20010904//EN"
 "http://www.w3.org/TR/2001/REC-SVG-20010904/DTD/svg10.dtd">
<svg version="1.0" xmlns="http://www.w3.org/2000/svg"
 width="248.000000pt" height="248.000000pt" viewBox="0 0 248.000000 248.000000"
 preserveAspectRatio="xMidYMid meet">
<metadata>
Created by potrace 1.11, written by Peter Selinger 2001-2013
</metadata>
<g transform="translate(0.000000,248.000000) scale(0.100000,-0.100000)"
fill="#000000" stroke="none">
<path d="M1095 2469 c-22 -4 -50 -10 -61 -13 -93 -20 -247 -108 -338 -194
-283 -266 -318 -727 -80 -1036 54 -69 105 -169 128 -250 30 -102 75 -156 163
-192 54 -23 270 -21 315 2 60 31 145 133 263 313 204 311 224 565 52 665 -84
50 -165 46 -248 -10 l-52 -35 -26 24 c-59 56 -138 73 -216 47 -113 -37 -176
-129 -176 -254 0 -120 47 -222 173 -373 86 -103 128 -118 171 -61 25 33 18 61
-26 109 -105 114 -156 198 -172 284 -10 49 -9 69 0 92 29 68 108 93 166 52 27
-19 29 -24 26 -77 -4 -69 11 -105 52 -122 26 -10 35 -10 56 4 35 23 47 51 44
106 -3 53 8 73 52 96 57 29 127 4 147 -54 38 -111 -84 -376 -278 -600 -77 -89
-67 -84 -190 -83 -111 1 -131 17 -170 136 -30 93 -73 178 -124 245 -109 143
-149 256 -147 418 1 101 21 182 69 282 28 58 56 95 122 160 87 87 149 125 270
166 69 23 260 26 335 5 219 -62 378 -212 451 -426 23 -68 27 -97 28 -190 0
-172 -41 -295 -146 -437 -105 -141 -153 -269 -164 -438 -4 -47 -12 -95 -20
-106 -20 -33 -96 -71 -187 -93 -96 -23 -160 -31 -306 -36 -100 -4 -107 -6
-129 -31 -27 -31 -23 -69 10 -96 17 -15 41 -18 147 -19 259 -1 370 -17 425
-60 25 -20 26 -22 9 -34 -41 -28 -127 -37 -394 -39 -194 -1 -213 -8 -213 -71
0 -58 23 -69 163 -71 286 -6 363 -25 448 -112 56 -58 94 -70 127 -43 31 26 30
67 -4 116 -17 25 -42 52 -55 61 l-24 16 37 31 c47 40 50 44 63 87 16 54 -4
116 -52 163 -22 20 -46 37 -54 37 -23 0 -17 16 10 28 41 19 93 72 114 116 12
26 21 74 25 131 10 152 51 270 124 359 128 155 194 350 187 556 -2 58 -6 116
-9 129 -68 292 -253 500 -526 592 -84 28 -109 32 -220 34 -69 2 -143 -1 -165
-6z"/>
</g>
</svg>
