<svg xmlns="http://www.w3.org/2000/svg" xmlns:xlink="http://www.w3.org/1999/xlink" viewBox="0 0 794.13 312.07">
  <defs>
    <style>
      .a { fill: none; } .b { clip-path: url(#a); } .c { fill: url(#b); } .d { clip-path: url(#c); } .e { fill: url(#d); } .f { fill: #00839b; } .g { clip-path: url(#e); } .h { fill: url(#f); } .i { fill: #12100b; }
    </style>
    <clipPath id="a" transform="translate(-2.3)">
      <path d="M369.63 194.06a6 6 0 0 0 6 6c27.94 0 41.7.5 49.28 12.06a6 6 0 0 0 10.1-6.58c-11.4-17.48-31.5-17.48-59.3-17.48a6 6 0 0 0-6 6" class="a"/>
    </clipPath>
    <linearGradient id="b" x1="-306.56" x2="-304.39" y1="538.24" y2="538.24" gradientTransform="matrix(0 -6 -6 0 3611.1 -1613.6)" gradientUnits="userSpaceOnUse">
      <stop offset="0" stop-color="#00839b"/>
      <stop offset="1" stop-color="#1f5369"/>
    </linearGradient>
    <clipPath id="c" transform="translate(-2.3)">
      <path d="M369.63 169.97a6 6 0 0 0 6 6c28.6 0 45.94 1.26 48.06 7.42-.5 1.1-2.1 2.3-7 3.2-7.6 1.4-19.6 1.4-36.1 1.4h-5.1a6 6 0 1 0 0 12h9.6c14.8 0 25.8-.2 33.7-1.6 8.1-1.6 13.3-4.9 15.6-10 .8-1.1 1.3-4.8 1.3-5.2 0-.5-.4-4-1.1-5-5.5-14.4-30.6-14.4-59.2-14.4a6 6 0 0 0-6 6" class="a"/>
    </clipPath>
    <linearGradient id="d" x1="-290.98" x2="-288.81" y1="566.8" y2="566.8" gradientTransform="matrix(0 -10.4 -10.4 0 6275.7 -2822.9)" xlink:href="#b"/>
    <clipPath id="e" transform="translate(-2.3)">
      <path d="M366.4 68c-4.84 6.92-5.43 16.4-1.65 26.7 3.56 9.68 12.1 19.5 18.36 25.9a5.96 5.96 0 0 0 8.5-8.37c-7.5-7.7-13.5-15.73-15.6-21.64-2.4-6.6-2.3-12.2.3-15.8a10.04 10.04 0 0 1 8.6-4.1c2.6 0 6.1 2.4 7.9 5.3a25.4 25.4 0 0 1 6.2-9.7c-3.6-4-8.4-7.6-14-7.6a21.9 21.9 0 0 0-18.4 9.2" class="a"/>
    </clipPath>
    <linearGradient id="f" x1="-262.34" x2="-260.17" y1="588.54" y2="588.54" gradientTransform="matrix(20.6 0 0 -20.6 5758.8 12198.6)" xlink:href="#b"/>
  </defs>
  <path d="M367.3 188.06h67.13v26.77H367.3z" class="b c"/>
  <path d="M367.3 163.97h66.27v36.1H367.3z" class="d e"/>
  <path d="M396.26 0a67.75 67.75 0 0 0-51.3 112.05c.06.06 5.32 6.34 8.68 18.83 3.07 11.46 11.26 17.78 23.04 17.78l11.27-.02c6.47 0 11.98-1.25 32.1-32.3a101.8 101.8 0 0 0 10.42-22.57c4.22-13.48 1.15-21.7-2.18-26.22a21.15 21.15 0 0 0-17.1-8.4c-5.3 0-10.6 3.42-14.8 7.3a25.42 25.42 0 0 0-6.2 9.66 19.66 19.66 0 0 0-1.2 6.5c0 5.3 4.1 8.3 6.7 8.3 3.7 0 6.8-4.6 6.8-8.2a21.37 21.37 0 0 0-1-6.1c2.3-3 6.7-5.4 9.5-5.4a9.4 9.4 0 0 1 7.4 3.6c2.4 3.3 2.5 8.7.4 15.6a101.33 101.33 0 0 1-8.9 19.3 138.45 138.45 0 0 1-18.8 24.7 6.97 6.97 0 0 1-5.6 2.6l-9.2-.1c-6.3 0-9.8-2.8-11.5-8.9-4.1-15.2-10.7-23-11.2-23.6a55.77 55.77 0 1 1 98-36.4c0 13.9-5.2 28.6-13.6 38.3-1.9 2.2-14.06 16.6-14.06 43 0 7.4-15.8 14.9-51.04 14.9a6 6 0 0 0 0 12c54.85 0 63.04-16.8 63.04-26.9 0-22.9 10.5-34.4 11-34.9.02-.02.1-.1.1-.12l.05-.07c10.4-12 16.6-29.3 16.6-46.2a67.84 67.84 0 0 0-67.46-68" class="f"/>
  <path d="M327.3 84.23l54.17-43.85 46.3 57.22-54.17 43.85z" class="g h"/>
  <path d="M0 311.38v-4.13l5.34-.92v-37.6L0 267.8v-4.15h36.65v11.47H31.1l-.5-6.4H11.8v15.45h18.26v5.08H11.8v17.08h19.18l.52-6.4H37v11.45H0zm42.2-30.68v-4.8h5.53v-4.48q0-5.67 2.97-8.77t8.27-3.1a14.26 14.26 0 0 1 2.25.18q1.13.18 2.5.5l-.78 4.92q-.6-.13-1.43-.23a14.75 14.75 0 0 0-1.7-.1 5.14 5.14 0 0 0-4.2 1.7 7.6 7.6 0 0 0-1.3 4.9v4.48h7.4v4.8h-7.4v25.63l5.4.92v4.13H42.4v-4.13l5.33-.92V280.7H42.2zm23.85 0v-4.8h5.54v-4.48q0-5.67 2.9-8.77t8.3-3.1a14.26 14.26 0 0 1 2.2.18q1.1.18 2.5.5l-.8 4.92q-.6-.13-1.5-.23a14.75 14.75 0 0 0-1.7-.1 5.14 5.14 0 0 0-4.3 1.7 7.6 7.6 0 0 0-1.4 4.9v4.48h7.4v4.8H78v25.63l5.36.92v4.13H66.24v-4.13l5.34-.92V280.7h-5.56zm39.9 31.37q-7.4 0-11.8-4.94t-4.36-12.8v-1.44a18.2 18.2 0 0 1 4.5-12.6 13.88 13.88 0 0 1 10.6-5.1q7.1 0 10.8 4.3t3.7 11.5v4h-23l-.1.1a14.02 14.02 0 0 0 2.6 8.4 8.25 8.25 0 0 0 6.9 3.3 16.24 16.24 0 0 0 5.7-.9 13.23 13.23 0 0 0 4.2-2.6l2.5 4.2a15.5 15.5 0 0 1-5.1 3.1 20.12 20.12 0 0 1-7.5 1.2zm-.98-31.74a7 7 0 0 0-5.54 2.74 12.97 12.97 0 0 0-2.82 6.87l.1.16h16.4v-.85a9.9 9.9 0 0 0-2-6.36 7.24 7.24 0 0 0-6-2.6zm36.8 26.7a8.7 8.7 0 0 0 5.66-2 6.05 6.05 0 0 0 2.45-4.86h5.8l.06.2q.17 4.6-4.08 8.14a14.93 14.93 0 0 1-9.88 3.6q-7.74 0-11.82-5a19.52 19.52 0 0 1-4.08-12.7V293a19.44 19.44 0 0 1 4.1-12.65q4.1-5.06 11.8-5.06a19.8 19.8 0 0 1 7.65 1.4 15.48 15.48 0 0 1 5.62 3.8l.3 7.8h-5.15l-1.4-5.6a8.57 8.57 0 0 0-2.96-1.8 11.32 11.32 0 0 0-4.06-.7q-5.08 0-7.26 3.6a17.2 17.2 0 0 0-2.18 8.9v1.4a17.42 17.42 0 0 0 2.16 9q2.16 3.6 7.28 3.6zm31.53-39.68v8.56h6.73v4.8h-6.72v21.6a4.82 4.82 0 0 0 1.1 3.5 3.73 3.73 0 0 0 2.8 1.1 14.07 14.07 0 0 0 1.9-.1q1.1-.1 1.8-.3l.9 4.4a8.3 8.3 0 0 1-2.7 1 16.98 16.98 0 0 1-3.5.4 8.36 8.36 0 0 1-6.2-2.3q-2.3-2.4-2.3-7.5v-21.6h-5.6V276h5.6v-8.53h6.5zm13.32 39.9l5.35-.92V281l-5.35-.93v-4.16h11.8v30.5l5.35.9v4.2h-17.15v-4.1zm11.8-40.42h-6.45v-6.6h6.46v6.6zm22.43 13.24l-4.26.66 7.3 20.2.6 2.55h.2l.6-2.56 7.1-20.2-4.3-.65v-4.16h13.7v4.2l-3 .5-11.9 30.8H222l-12-30.8-2.9-.5V276h13.7v4.17zm41.07 32q-7.4 0-11.78-4.94t-4.38-12.8v-1.44a18.2 18.2 0 0 1 4.5-12.6 13.88 13.88 0 0 1 10.68-5.1q7.15 0 10.83 4.3t3.7 11.5v4h-23.02l-.1.1a14.02 14.02 0 0 0 2.6 8.4 8.25 8.25 0 0 0 6.97 3.3 16.24 16.24 0 0 0 5.75-.9 13.23 13.23 0 0 0 4.28-2.6l2.53 4.2a15.5 15.5 0 0 1-5.04 3.1 20.12 20.12 0 0 1-7.52 1.2zm-.98-31.74a7 7 0 0 0-5.54 2.74 12.97 12.97 0 0 0-2.82 6.87l.07.16H269v-.85a9.9 9.9 0 0 0-2.03-6.36 7.24 7.24 0 0 0-6.03-2.6zm36.46 26.92l3.53-.5 16.7-43.1h5.53l16.4 43.1 3.5.5v4.13h-13.7v-4.13l3.6-.63-3.14-8.78H310.7l-3.24 8.78 3.6.63v4.13H297.4v-4.13zm15.3-14.82h15.15l-7.4-20.5h-.2zm34.1-28.03v-4.16h11.8v46.1l5.34.9v4.14H346.8v-4.13l5.34-.92v-41zm33.3 2.95v8.56h6.72v4.8h-6.72v21.6a4.82 4.82 0 0 0 1.03 3.5 3.73 3.73 0 0 0 2.74 1.1 14.07 14.07 0 0 0 1.92-.1q1-.1 1.7-.3l.9 4.4a8.3 8.3 0 0 1-2.7 1 16.98 16.98 0 0 1-3.6.4 8.36 8.36 0 0 1-6.3-2.3q-2.4-2.4-2.4-7.5v-21.6H368V276h5.6v-8.53h6.47zm13.3 12.72v-4.16h11.12l.63 5.2a12.38 12.38 0 0 1 3.72-4.2 8.64 8.64 0 0 1 5.06-1.5 11.07 11.07 0 0 1 1.56.1 8.76 8.76 0 0 1 1.2.3l-.9 6-3.7-.2a7.4 7.4 0 0 0-4.3 1.2 7.74 7.74 0 0 0-2.7 3.4v20.4l5.3.9v4.2h-17.1v-4.1l5.3-.9V281zm53.15 26.06a11.96 11.96 0 0 1-4.3 4.4 11.84 11.84 0 0 1-6.1 1.54q-5.76 0-9-3.7t-3.25-11.54V281l-4.07-.93v-4.16h10.52v21q0 5.7 1.68 7.8a6.2 6.2 0 0 0 5.2 2.2 10.6 10.6 0 0 0 5.7-1.4 8.7 8.7 0 0 0 3.4-3.9V281l-4.76-.93v-4.16h11.2v30.5l4.07.9v4.2h-9.87zm15.4 1.12l5.35-.92V281l-5.34-.93v-4.16h11.8v30.5l5.34.9v4.2h-17.14v-4.1zm11.8-40.42h-6.45v-6.6h6.46v6.6zm37.4 20.22h-4.84l-1-4.26a8.75 8.75 0 0 0-2.9-1.8 11.46 11.46 0 0 0-4-.7 7.45 7.45 0 0 0-5.1 1.5 4.73 4.73 0 0 0-1.7 3.6 4.06 4.06 0 0 0 1.5 3.3q1.5 1.2 6 2.2 6.8 1.4 10 3.9a7.9 7.9 0 0 1 3.3 6.6 9.16 9.16 0 0 1-3.8 7.6q-3.8 2.9-10 2.9a25.93 25.93 0 0 1-7.2-1 19.3 19.3 0 0 1-5.7-2.7v-8.1h4.9l1.2 4.7a6.73 6.73 0 0 0 3.1 1.4 16.73 16.73 0 0 0 3.9.5 9.14 9.14 0 0 0 5.4-1.4 4.3 4.3 0 0 0 2-3.7 4.4 4.4 0 0 0-1.6-3.5q-1.6-1.4-6.1-2.4-6.5-1.4-9.8-3.9a7.73 7.73 0 0 1-3.3-6.57 9.26 9.26 0 0 1 3.7-7.37 14.55 14.55 0 0 1 9.6-3.08 23.3 23.3 0 0 1 7.3 1 15.1 15.1 0 0 1 5.3 2.9zm5.8 20.2l5.36-.92V281l-5.3-.93v-4.16h11.2l.5 4.7a11.6 11.6 0 0 1 4.4-3.9 13.48 13.48 0 0 1 6.3-1.4 10.98 10.98 0 0 1 6.1 1.7 9.92 9.92 0 0 1 3.9 4.9 13.15 13.15 0 0 1 4.4-4.7 11.62 11.62 0 0 1 6.5-1.7 10.66 10.66 0 0 1 8.6 3.7q3.1 3.8 3.1 11.2v16.2l5.4.9v4.1H560v-4.1l5.32-.9v-16.3q0-5.2-1.8-7.4a6.53 6.53 0 0 0-5.35-2.2 6.8 6.8 0 0 0-5.44 2.4 10.33 10.33 0 0 0-2.3 6v17.5l5.32.9v4.17h-17.2v-4.2l5.38-.9v-16.3q0-5-1.85-7.3a6.47 6.47 0 0 0-5.37-2.3 8.87 8.87 0 0 0-4.8 1.2 7.83 7.83 0 0 0-2.9 3.4v21.2l5.4.9v4.14h-17.1v-4.13zm119.9-1.18a21.22 21.22 0 0 1-6.8 4.14 29.6 29.6 0 0 1-11.27 1.9q-9.67 0-15.73-6.5t-6.07-16.8v-1.6q0-10.7 6-17.4a19.93 19.93 0 0 1 15.6-6.7 28.3 28.3 0 0 1 10.25 1.8 22.08 22.08 0 0 1 7.72 4.9v9.6h-7.08l-1.34-6.4a9.82 9.82 0 0 0-3.46-1.8 16.52 16.52 0 0 0-4.93-.6A11.48 11.48 0 0 0 610 275q-3.48 4.63-3.48 12.1v1.7q0 7.3 3.4 11.63t9.85 4.34a18.1 18.1 0 0 0 4.67-.5 10.27 10.27 0 0 0 2.8-1.12V295l-6.82-.53v-6.72h16.43v18.32zm4-40.07v-5.76h14.7v44.42l4.6.98v5.74h-18.8v-5.74l4.6-.98V267zm21.75 27.3q0-7.92 4.45-13t12.28-5.05q7.86 0 12.3 5.05t4.45 13v.7q0 8-4.44 13.03t-12.25 5.03q-7.9 0-12.4-5.03T662.6 294v-.7zm9.58.7a15.42 15.42 0 0 0 1.7 7.8 6.55 6.55 0 0 0 10.94-.03 15.33 15.33 0 0 0 1.72-7.77v-.7a15.18 15.18 0 0 0-1.74-7.7 5.88 5.88 0 0 0-5.47-2.97 5.8 5.8 0 0 0-5.45 2.98 15.4 15.4 0 0 0-1.7 7.7v.7zm62.35.63q0 7.93-3.54 12.68t-10.3 4.8a10.82 10.82 0 0 1-5.4-1.3 11 11 0 0 1-3.9-3.7l-.7 4.4h-8.3V267l-5.1-.98v-5.76H712v19.44a10.83 10.83 0 0 1 3.7-3.28 10.3 10.3 0 0 1 4.93-1.15q6.75 0 10.3 5.1t3.53 13.6v.68zm-9.54-.7a18.48 18.48 0 0 0-1.6-8.2 5.35 5.35 0 0 0-5.2-3.04 7.14 7.14 0 0 0-3.8.9 6.47 6.47 0 0 0-2.5 2.6v14.9a6.03 6.03 0 0 0 2.4 2.5 7.86 7.86 0 0 0 3.8.8q3.7 0 5.2-2.6a15.18 15.18 0 0 0 1.5-7.4v-.7zm36.5 17.45a17.52 17.52 0 0 1-.7-1.82 14.44 14.44 0 0 1-.5-1.9 13.16 13.16 0 0 1-4.2 3.2 12.4 12.4 0 0 1-5.6 1.2 11.7 11.7 0 0 1-8.3-2.83 10 10 0 0 1-3.1-7.72 8.78 8.78 0 0 1 4-7.7q4-2.7 11.7-2.7h4.9v-3.5a5.23 5.23 0 0 0-1.5-3.9 6.1 6.1 0 0 0-4.4-1.4 10.33 10.33 0 0 0-2.9.4 7.62 7.62 0 0 0-2.1.9l-.6 3.8H741v-7.8a26.83 26.83 0 0 1 6.06-3 21.82 21.82 0 0 1 7.4-1.2q6.57 0 10.7 3.3t4.1 9.2V304a10.97 10.97 0 0 0 .1 1.36l2.94.4v5.7h-11zm-8.3-6.4a8.3 8.3 0 0 0 3.9-.93 7.6 7.6 0 0 0 2.7-2.35v-5.4H755a6.67 6.67 0 0 0-4.6 1.43 4.46 4.46 0 0 0-1.57 3.42 3.54 3.54 0 0 0 1.16 2.82 4.75 4.75 0 0 0 3.2 1zM774.8 266v-5.76h14.7v44.42l4.6.98v5.74h-18.8v-5.74l4.6-.98V267z" class="i"/>
</svg>
