<svg xmlns="http://www.w3.org/2000/svg" xmlns:xlink="http://www.w3.org/1999/xlink" viewBox="0 0 858.775 312.066">
  <defs>
    <style>
      .a { fill: none; } .b { clip-path: url(#a); } .c { fill: url(#b); } .d { clip-path: url(#c); } .e { fill: url(#d); } .f { fill: #00839b; } .g { clip-path: url(#e); } .h { fill: url(#f); } .i { fill: #12100b; }
    </style>
    <clipPath id="a" transform="translate(-2.328)">
      <path d="M401.982 194.056a6 6 0 0 0 6 6c27.938 0 41.706.512 49.28 12.06a6 6 0 0 0 10.032-6.58c-11.463-17.476-31.532-17.476-59.31-17.476a6 6 0 0 0-6 6" class="a"/>
    </clipPath>
    <linearGradient id="b" x1="-274.207" x2="-272.032" y1="538.24" y2="538.24" gradientTransform="matrix(0 -5.964 -5.964 0 3643.495 -1420.656)" gradientUnits="userSpaceOnUse">
      <stop offset="0" stop-color="#00839b"/>
      <stop offset="1" stop-color="#1f5369"/>
    </linearGradient>
    <clipPath id="c" transform="translate(-2.328)">
      <path d="M401.982 169.97a6 6 0 0 0 6 6c28.608 0 45.945 1.258 48.067 7.42-.49 1.174-2.05 2.337-6.97 3.27-7.58 1.43-19.53 1.414-36.06 1.4h-5.04a6 6 0 1 0 0 12h9.61c14.84 0 25.81-.125 33.71-1.614 8.11-1.53 13.32-4.874 15.61-9.96.83-1.028 1.32-4.72 1.29-5.188.03-.495-.36-3.986-1.05-4.963-5.45-14.355-30.59-14.363-59.19-14.363a6 6 0 0 0-6 6" class="a"/>
    </clipPath>
    <linearGradient id="d" x1="-258.625" x2="-256.451" y1="566.801" y2="566.801" gradientTransform="matrix(0 -10.366 -10.366 0 6308.027 -2487.49)" xlink:href="#b"/>
    <clipPath id="e" transform="translate(-2.328)">
      <path d="M398.75 67.994c-4.836 6.93-5.42 16.41-1.64 26.7 3.552 9.684 12.09 19.517 18.358 25.9a5.963 5.963 0 0 0 8.5-8.36c-7.585-7.717-13.5-15.734-15.67-21.648-2.4-6.526-2.316-12.123.224-15.767a10.04 10.04 0 0 1 8.564-4.04c2.6 0 6.085 2.44 7.865 5.33a25.406 25.406 0 0 1 6.16-9.66c-3.59-3.94-8.38-7.61-14.02-7.61a21.908 21.908 0 0 0-18.34 9.14" class="a"/>
    </clipPath>
    <linearGradient id="f" x1="-229.986" x2="-227.812" y1="588.536" y2="588.536" gradientTransform="matrix(20.573 0 0 -20.573 5125.52 12198.614)" xlink:href="#b"/>
  </defs>
  <path d="M399.654 188.057h67.128v26.766h-67.128z" class="b c"/>
  <path d="M399.654 163.97h66.27v36.09h-66.27z" class="d e"/>
  <path d="M428.616 0a67.752 67.752 0 0 0-51.284 112.05c.052.064 5.31 6.337 8.664 18.83 3.075 11.465 11.26 17.78 23.046 17.78l11.272-.018c6.466 0 11.972-1.257 32.082-32.3a101.8 101.8 0 0 0 10.436-22.567c4.22-13.488 1.147-21.71-2.18-26.228a21.15 21.15 0 0 0-17.075-8.39c-5.28 0-10.606 3.414-14.8 7.3a25.424 25.424 0 0 0-6.155 9.655 19.664 19.664 0 0 0-1.137 6.45c0 5.258 4.142 8.276 6.717 8.276 3.734 0 6.844-4.636 6.844-8.274a21.37 21.37 0 0 0-.985-6.106c2.33-3.056 6.76-5.377 9.52-5.377a9.406 9.406 0 0 1 7.47 3.53c2.43 3.3 2.57 8.7.4 15.61a101.33 101.33 0 0 1-8.85 19.32 138.446 138.446 0 0 1-18.72 24.64 6.974 6.974 0 0 1-5.61 2.56l-9.21-.05c-6.27 0-9.8-2.74-11.46-8.9-4.07-15.2-10.71-23.04-11.16-23.56a55.77 55.77 0 1 1 97.97-36.44c0 13.93-5.2 28.6-13.57 38.29a.213.213 0 0 0-.02.03c-1.94 2.15-14.07 16.63-14.07 42.97 0 7.43-15.79 14.92-51.06 14.92a6 6 0 0 0 0 12c54.87 0 63.06-16.86 63.06-26.91 0-22.853 10.5-34.4 11-34.935.05-.05.08-.1.12-.15.02-.02.05-.035.07-.06 10.33-11.95 16.49-29.2 16.49-46.13A67.845 67.845 0 0 0 428.62 0" class="f"/>
  <path d="M359.646 84.23l54.183-43.85 46.3 57.22-54.19 43.848z" class="g h"/>
  <path d="M0 311.377v-4.13l5.343-.918v-37.6L0 267.81v-4.162h36.65v11.474h-5.54l-.525-6.393H11.8v15.43h18.26v5.08H11.8v17.08h19.18l.524-6.39h5.507v11.44H0zm42.19-30.683v-4.786h5.54v-4.49q0-5.67 2.966-8.77t8.277-3.1a14.26 14.26 0 0 1 2.246.18q1.13.18 2.5.51l-.79 4.916q-.59-.13-1.43-.23a14.746 14.746 0 0 0-1.72-.1 5.14 5.14 0 0 0-4.23 1.69 7.59 7.59 0 0 0-1.38 4.9v4.49h7.41v4.786h-7.41v25.64l5.34.917v4.13H42.38v-4.13l5.344-.917v-25.636h-5.54zm23.864 0v-4.786h5.54v-4.49q0-5.67 2.966-8.77t8.277-3.1a14.26 14.26 0 0 1 2.246.18q1.13.18 2.508.51l-.78 4.916q-.59-.13-1.42-.23a14.746 14.746 0 0 0-1.72-.1 5.14 5.14 0 0 0-4.23 1.69 7.59 7.59 0 0 0-1.37 4.9v4.49h7.41v4.786h-7.41v25.64l5.35.917v4.13H66.25v-4.13l5.345-.917v-25.636h-5.54zm39.896 31.372q-7.41 0-11.786-4.934t-4.376-12.8v-1.442a18.186 18.186 0 0 1 4.508-12.6 13.883 13.883 0 0 1 10.67-5.032q7.146 0 10.834 4.327t3.688 11.54v4.03H96.472l-.1.165a14.02 14.02 0 0 0 2.59 8.408 8.25 8.25 0 0 0 6.98 3.294 16.244 16.244 0 0 0 5.754-.934 13.23 13.23 0 0 0 4.278-2.573l2.524 4.2a15.494 15.494 0 0 1-5.032 3.1 20.12 20.12 0 0 1-7.517 1.25zm-.984-31.732a7 7 0 0 0-5.54 2.737 12.966 12.966 0 0 0-2.82 6.87l.066.16h16.358v-.85a9.9 9.9 0 0 0-2.033-6.36 7.242 7.242 0 0 0-6.032-2.55zm36.814 26.683a8.708 8.708 0 0 0 5.654-1.982 6.054 6.054 0 0 0 2.442-4.868h5.8l.065.2q.17 4.59-4.08 8.146a14.927 14.927 0 0 1-9.88 3.557q-7.73 0-11.81-5.05a19.525 19.525 0 0 1-4.08-12.685v-1.377a19.443 19.443 0 0 1 4.1-12.638q4.1-5.064 11.8-5.064a19.8 19.8 0 0 1 7.66 1.41 15.482 15.482 0 0 1 5.62 3.867l.3 7.868h-5.15l-1.41-5.57a8.566 8.566 0 0 0-2.95-1.8 11.325 11.325 0 0 0-4.06-.69q-5.08 0-7.26 3.66a17.215 17.215 0 0 0-2.18 8.97v1.38a17.418 17.418 0 0 0 2.17 9.07q2.17 3.62 7.28 3.62zm31.535-39.665v8.556h6.72v4.786h-6.72v21.537a4.82 4.82 0 0 0 1.033 3.51 3.732 3.732 0 0 0 2.737 1.02 14.072 14.072 0 0 0 1.917-.14q1.065-.15 1.787-.31l.88 4.43a8.308 8.308 0 0 1-2.69.97 16.98 16.98 0 0 1-3.54.38 8.36 8.36 0 0 1-6.26-2.37q-2.33-2.38-2.33-7.46V280.7h-5.6v-4.787h5.6v-8.557h6.46zm13.31 39.895l5.342-.917v-25.34l-5.343-.92v-4.162h11.8v30.422l5.343.917v4.13h-17.143v-4.13zm11.8-40.42h-6.453v-6.588h6.458v6.58zm22.423 13.243l-4.262.657 7.31 20.193.59 2.557h.2l.623-2.557 7.08-20.193-4.3-.656v-4.16h13.7v4.17l-2.92.5-11.9 30.82h-4.89l-12.03-30.81-2.92-.49v-4.16h13.7v4.17zm41.075 31.996q-7.408 0-11.785-4.934t-4.376-12.8v-1.442a18.186 18.186 0 0 1 4.508-12.6 13.883 13.883 0 0 1 10.67-5.032q7.146 0 10.834 4.327t3.688 11.54v4.03H252.45l-.1.165a14.02 14.02 0 0 0 2.588 8.408 8.25 8.25 0 0 0 6.982 3.294 16.244 16.244 0 0 0 5.753-.934 13.23 13.23 0 0 0 4.278-2.573l2.53 4.2a15.494 15.494 0 0 1-5.03 3.1 20.12 20.12 0 0 1-7.52 1.25zm-.983-31.732a7 7 0 0 0-5.54 2.737 12.966 12.966 0 0 0-2.82 6.87l.066.17h16.358v-.85a9.9 9.9 0 0 0-2.033-6.36 7.242 7.242 0 0 0-6.03-2.55zm36.452 26.913l3.54-.49 16.687-43.108h5.54l16.39 43.1 3.5.49v4.13h-13.7v-4.13l3.6-.63-3.15-8.79h-19.1l-3.25 8.78 3.6.62v4.13h-13.67v-4.13zm15.31-14.816h15.144l-7.41-20.48h-.2zm34.092-28.03v-4.16h11.8v46.1l5.343.92v4.13h-17.143v-4.13l5.344-.91v-41.01zm33.306 2.96v8.56h6.72v4.79h-6.72v21.54a4.82 4.82 0 0 0 1.033 3.51 3.732 3.732 0 0 0 2.737 1.02 14.072 14.072 0 0 0 1.917-.15q1.065-.15 1.787-.31l.885 4.43a8.308 8.308 0 0 1-2.69.97 16.98 16.98 0 0 1-3.54.38 8.36 8.36 0 0 1-6.26-2.38q-2.33-2.38-2.33-7.46V280.7h-5.61v-4.786h5.6v-8.557h6.46zm13.31 12.72v-4.16h11.112l.623 5.15a12.388 12.388 0 0 1 3.72-4.26 8.645 8.645 0 0 1 5.065-1.54 11.054 11.054 0 0 1 1.557.12 8.714 8.714 0 0 1 1.23.25l-.853 6-3.672-.2a7.39 7.39 0 0 0-4.294 1.2 7.746 7.746 0 0 0-2.688 3.36v20.36l5.343.92v4.13H393.41v-4.13l5.342-.91V281zm53.138 26.07a11.98 11.98 0 0 1-4.31 4.4 11.84 11.84 0 0 1-6.083 1.54q-5.77 0-9.014-3.7t-3.24-11.54V281l-4.06-.92v-4.16h10.53v20.98q0 5.67 1.68 7.8a6.212 6.212 0 0 0 5.21 2.13 10.61 10.61 0 0 0 5.69-1.395 8.7 8.7 0 0 0 3.39-3.95v-20.49l-4.75-.92v-4.16h11.21v30.42l4.07.918v4.13H447zm15.407 1.12l5.343-.91V281l-5.343-.92v-4.16h11.8v30.42l5.344.917v4.13h-17.15v-4.13zm11.8-40.42h-6.458v-6.58h6.458v6.59zm37.405 20.23h-4.852l-1.05-4.26a8.75 8.75 0 0 0-2.966-1.79 11.46 11.46 0 0 0-4.05-.67 7.446 7.446 0 0 0-5.112 1.51 4.727 4.727 0 0 0-1.672 3.64 4.057 4.057 0 0 0 1.475 3.32q1.475 1.21 6 2.16 6.72 1.45 10 3.92a7.9 7.9 0 0 1 3.278 6.64 9.164 9.164 0 0 1-3.81 7.64q-3.82 2.92-9.98 2.92a25.93 25.93 0 0 1-7.24-.934 19.3 19.3 0 0 1-5.73-2.7l-.03-8.1h4.86l1.21 4.75a6.728 6.728 0 0 0 3.03 1.478 16.733 16.733 0 0 0 3.92.46 9.14 9.14 0 0 0 5.4-1.39 4.3 4.3 0 0 0 1.95-3.65 4.4 4.4 0 0 0-1.62-3.506q-1.622-1.377-6.145-2.393-6.46-1.41-9.74-3.832a7.733 7.733 0 0 1-3.28-6.554 9.263 9.263 0 0 1 3.69-7.38 14.554 14.554 0 0 1 9.59-3.05 23.29 23.29 0 0 1 7.246 1.05 15.106 15.106 0 0 1 5.34 2.914zm5.802 20.2l5.344-.91V281l-5.344-.92v-4.16h11.146l.426 4.62a11.606 11.606 0 0 1 4.393-3.9 13.48 13.48 0 0 1 6.23-1.377 10.983 10.983 0 0 1 6.08 1.64 9.924 9.924 0 0 1 3.82 4.92 13.155 13.155 0 0 1 4.424-4.786 11.617 11.617 0 0 1 6.43-1.77 10.658 10.658 0 0 1 8.59 3.72q3.15 3.72 3.15 11.193v16.16l5.35.917v4.13h-17.18v-4.13l5.35-.915V290.1q0-5.244-1.8-7.425a6.533 6.533 0 0 0-5.34-2.18 6.812 6.812 0 0 0-5.42 2.376 10.328 10.328 0 0 0-2.37 5.99v17.48l5.347.92v4.13H538.4v-4.13l5.345-.91V290.1q0-4.982-1.853-7.294a6.467 6.467 0 0 0-5.36-2.31 8.87 8.87 0 0 0-4.85 1.212 7.827 7.827 0 0 0-2.92 3.41v21.21l5.345.916v4.13h-17.145v-4.13zm118.8-1.28a21.06 21.06 0 0 1-6.2 4.15 24.92 24.92 0 0 1-10.652 1.95 20.047 20.047 0 0 1-15.62-6.72q-6.048-6.72-6.05-17.44v-.78q0-10.786 5.983-17.473T619.14 263a24.34 24.34 0 0 1 9.32 1.655 20.754 20.754 0 0 1 6.77 4.38v8.66h-4.53l-1.58-6.59a13.666 13.666 0 0 0-3.89-2.16 15.6 15.6 0 0 0-5.46-.854q-7.74 0-11.92 5.3t-4.18 13.72v.85q0 8.557 4.05 13.835a13.287 13.287 0 0 0 11.16 5.276 20.835 20.835 0 0 0 6.39-.82 17.316 17.316 0 0 0 4-1.8v-10.46l-7.84-.325v-4.75h14.293V306zm7.18-41.56v-4.163h11.8v46.096l5.343.918v4.13h-17.143v-4.13l5.344-.92v-41.01zm21.406 28.915q0-7.87 4.262-12.967a14.29 14.29 0 0 1 11.572-5.1q7.342 0 11.62 5.08t4.278 12.98v.72q0 7.937-4.262 12.98t-11.57 5.05q-7.378 0-11.64-5.062t-4.26-12.964v-.72zm6.458.72a16.818 16.818 0 0 0 2.377 9.31 8.554 8.554 0 0 0 14.047 0 16.74 16.74 0 0 0 2.393-9.31v-.72a16.778 16.778 0 0 0-2.393-9.28 7.86 7.86 0 0 0-7.048-3.7 7.78 7.78 0 0 0-7.016 3.7 16.955 16.955 0 0 0-2.36 9.277v.72zm63.63.95q0 7.67-3.688 12.375a12.186 12.186 0 0 1-10.146 4.7 12.912 12.912 0 0 1-6.03-1.33 11.3 11.3 0 0 1-4.263-3.918l-.59 4.56h-5.58v-46.06l-5.35-.92v-4.16h11.8v19.86a11.21 11.21 0 0 1 4.14-3.61 12.722 12.722 0 0 1 5.78-1.246 11.788 11.788 0 0 1 10.22 5.246q3.67 5.25 3.67 13.8v.69zm-6.49-.69a19.678 19.678 0 0 0-2.23-9.97 7.362 7.362 0 0 0-6.818-3.833 8.517 8.517 0 0 0-5.032 1.444 10.21 10.21 0 0 0-3.262 3.863v15.67a10.026 10.026 0 0 0 3.295 3.9 8.667 8.667 0 0 0 5.06 1.44 7.633 7.633 0 0 0 6.77-3.24 14.992 14.992 0 0 0 2.21-8.59v-.68zm36.057 17.078q-.3-1.44-.46-2.59t-.228-2.29a15.618 15.618 0 0 1-4.672 3.982 11.935 11.935 0 0 1-5.982 1.59q-5.54 0-8.42-2.7t-2.88-7.62a8.826 8.826 0 0 1 4.08-7.786q4.08-2.736 11.2-2.735h6.66v-4.13a6.39 6.39 0 0 0-1.96-4.93 7.756 7.756 0 0 0-5.47-1.82 13.415 13.415 0 0 0-4.27.62 8.033 8.033 0 0 0-3 1.7l-.69 3.74h-4.98v-6.88a19.164 19.164 0 0 1 5.867-3.1 23.185 23.185 0 0 1 7.477-1.168 14.862 14.862 0 0 1 9.77 3.08q3.74 3.08 3.74 8.82v17.078q0 .69.02 1.348t.08 1.31l2.62.36v4.13h-8.46zm-10.392-4.72a11.465 11.465 0 0 0 5.87-1.54 9.55 9.55 0 0 0 3.8-3.7v-5.84h-6.88a9.822 9.822 0 0 0-6.27 1.838 5.52 5.52 0 0 0-2.31 4.455 4.413 4.413 0 0 0 1.45 3.55 6.587 6.587 0 0 0 4.36 1.23zm23.34-42.253v-4.16h11.8v46.09l5.35.917v4.13h-17.15v-4.13l5.35-.917v-41.01zm36.88 41.24l4.04-.785 12.62-17.538-12.29-17.08-4-.82v-5.77h18.33v5.77l-3.9.425 7.38 11.7 7.41-11.7-3.83-.43v-5.77h18.39v5.77l-4 .82-12.29 17.08 12.89 17.5 4.23.82v5.734H840v-5.736l3.8-.39-7.67-12.067-7.7 12.06 3.834.395v5.737h-18.43v-5.73z" class="i"/>
</svg>
