<svg xmlns="http://www.w3.org/2000/svg" viewBox="0 0 224.6 68.8"><path fill="#999" d="M8.5 22.4c0 2.7.7 3 3.8 3.1v1H0v-1c2.5-.1 3.3-.4 3.3-3.1V4.7c0-2.7-.7-3-3.2-3.1v-1h21.6l.1 5.7h-1.1c-.9-2.9-1.9-3.8-7-3.8H9.9c-1.2 0-1.4.3-1.4 1.3V12h4.4c4 0 4.9-.7 5.4-3.4h1v9.1h-1c-.5-3-2.1-3.8-5.4-3.8H8.5v8.5zm25.5 0c0 2.7.7 3 3.8 3.1v1H25v-1c3.1-.1 3.8-.4 3.8-3.1V4.7c0-2.7-.7-3-3.8-3.1v-1h12.8v1c-3.1.1-3.8.4-3.8 3.1v17.7zM64.4 5.5c0-2.5-.7-3.5-3.5-3.9v-1H70v1c-2.8.3-3.5 1.3-3.5 3.9v21.6h-1.3L47.6 6.7v15c0 2.5.7 3.5 3.5 3.9v1H42v-1c2.8-.3 3.5-1.3 3.5-3.9V4.2C44.6 2.7 43.6 2 42 1.6v-1h7l15.4 17.8V5.5zm13.9 11.7L82.1 7 86 17.2h-7.7zm18.5 9.3v-1c-1.9 0-2.4-.8-3.4-3.2L84.3 0H83l-9.5 23.1c-.6 1.6-1.5 2.1-3.2 2.4v1h8.2v-1c-1.8 0-2.7-.4-2.7-1.6 0-1.1 1.2-3.9 1.5-4.8h9.4c.3.8 1.6 3.7 1.6 4.8 0 1.2-.9 1.6-2.7 1.6v1h11.2zm25.1-21c0-2.5-.7-3.5-3.5-3.9v-1h9.1v1c-2.8.3-3.5 1.3-3.5 3.9v21.6h-1.3L105 6.7v15c0 2.5.7 3.5 3.5 3.9v1h-9.1v-1c2.8-.3 3.5-1.3 3.5-3.9V4.2C102 2.7 101 2 99.4 1.6v-1h7l15.4 17.8.1-12.9zm32.6 14.9c-2.7 4.6-6.2 6.7-11.6 6.7-8.4 0-13.4-5.5-13.4-13.8 0-5.9 4.6-13.3 13.7-13.3 2.7 0 6.5 1.5 7.1 1.5.8 0 1-.4 1.6-1.5h1.3l.5 8.6h-1.1c-1.5-4-4.2-6.9-8.8-6.9-6.1 0-8.8 6.6-8.8 11.6 0 7 3 11.6 9.4 11.6 5 0 7.8-3.7 9-5.4l1.1.9zm12.6 2c0 2.7.7 3 3.8 3.1v1h-12.8v-1c3.1-.1 3.8-.4 3.8-3.1V4.7c0-2.7-.7-3-3.8-3.1v-1h12.8v1c-3.1.1-3.8.4-3.8 3.1v17.7zm14.4-5.2L185.3 7l3.8 10.2h-7.6zm18.5 9.3v-1c-1.9 0-2.4-.8-3.4-3.2L187.5 0h-1.3l-9.5 23.1c-.6 1.6-1.5 2.1-3.2 2.4v1h8.2v-1c-1.8 0-2.7-.4-2.7-1.6 0-1.1 1.2-3.9 1.5-4.8h9.4c.3.8 1.6 3.7 1.6 4.8 0 1.2-1 1.6-2.7 1.6v1H200zm2.3 0v-1c2.5-.1 3.2-.4 3.2-3.1V4.7c0-2.7-.7-3-3.2-3.1v-1h11.9v1c-2.9.1-3.6.4-3.6 3.1v18.1c0 1.6.5 2.1 3.4 2.1 4.6 0 7.4-.8 9.6-5.4h1l-1.8 6.9-20.5.1zM5.7 67.2c2.9-.1 3.7-.4 3.7-3.1V44.2H6.2c-3 0-4.2 1.2-5 4.7H0l.6-6.6h22.7l.6 6.6h-1.1c-.8-3.5-2-4.7-5-4.7h-3.2v19.9c0 2.7.7 3 3.6 3.1v1H5.7v-1zm29.8-3.1c0 2.7.7 3 3.8 3.1v1H26.6v-1c3.1-.1 3.8-.4 3.8-3.1V46.5c0-2.7-.7-3-3.8-3.1v-1h12.8v1c-3.1.1-3.8.4-3.8 3.1-.1 0-.1 17.6-.1 17.6zm31-21.7h8.9v1c-2.5.1-3.2.4-3.2 3.1v17.7c0 2.7.7 3 3.2 3.1v1H63.8v-1c2.5-.1 3.3-.4 3.3-3.1V45.9H67l-8.6 22.6h-1.2l-8.4-22.6h-.1v17.5c0 2.5.7 3.5 3.5 3.9v1H43v-1c2.8-.3 3.5-1.3 3.5-3.9V45.8c0-1.8-.8-2.5-3.5-2.5v-1h9.4l6.9 18 7.2-17.9zm12.6 25.8v-1c2.5-.1 3.2-.4 3.2-3.1V46.5c0-2.7-.7-3-3.2-3.1v-1h21.6l.2 5.7h-1.1c-.9-2.9-1.9-3.8-7-3.8h-3.9c-1.2 0-1.4.3-1.4 1.3v8.2h4.4c4 0 4.9-.7 5.4-3.4h1v9.1h-1c-.5-3-2.1-3.8-5.4-3.8h-4.4v9c0 1.5.5 2.1 5 2.1 4.6 0 7.4-.8 9.6-5.4h1l-1.7 6.9-22.3-.1zm27.3-8.1h1c1.1 3.4 4.4 7 8.2 7 3.3 0 4.4-2.3 4.4-4.3 0-5.9-13.4-7-13.4-14.4 0-3.6 3.5-6.6 7.4-6.6 3.9 0 5.2 1.4 7 1.4.7 0 1.2-.6 1.4-1.4h1V50h-1c-1.1-3.7-3.7-6.5-7.2-6.5-2.9 0-4 1.9-4 3.6 0 5.3 13.4 5.4 13.4 14.5 0 4.1-3.3 7.2-8 7.2-4.6 0-5.7-1.6-7.5-1.6-.7 0-1.1.5-1.3 1.3h-1.4v-8.4z"/></svg>