<svg xmlns="http://www.w3.org/2000/svg" width="2288" height="328" viewBox="0 0 1716 246"><path fill="#999" d="M111.3 6.1c-1.582.076-3.12.478-4.6 1.425 6.1 1.22 13.25 2.04 17.1 7.6 1.93 2.05 1.33 5.2-.6 7-3.65 4.35-9.915 5.715-15.275 4.325-18.17-4.29-35.355-12.63-54.025-14.8-10-1.32-19.775 3.49-26.675 10.45-6.37 6.39-8.685 16.09-7.425 24.85 1.41 6.93 6.545 14.13 13.975 15.15-4.4-4.78-5.235-13.08-.675-18.05 2.58-3.2 7.165-3.64 10.975-3.05 14.47 2.69 28.57 7.045 43 9.975 8.08 2.2 16.065 4.825 24.325 6.325.15 9.87.15 19.73 0 29.6-5.33 3.98-10.42 8.265-15.65 12.375 5.09 3.81 10.34 7.38 15.6 10.95.34 13.96-.05 27.915.2 41.875-8.61 6.65-20.145 7.73-30.625 6.5-11.13-.62-21.01-7.25-28.3-15.3 12.22-6.52 24.675-12.67 37.175-18.65.44-22.01.08-44.03.2-66.05-15.62 6.55-31.08 13.45-46.65 20.1 4.5-11.51 13.655-20.835 24.575-26.375-2.85.17-5.84-.04-8.5 1.2C38.985 61.595 22.14 78.94 15.8 100.1c-4.24 13.44-2.875 28.135 1.725 41.275 5.7 14.62 16.245 27.56 30.225 34.95 7.85 4.06 16.3 7.865 25.3 7.975 18.63 1.55 38.23-5.48 50.8-19.5 5.49-5.89 8.255-13.57 10.975-21 2.52-7.32 3.66-15.11 3.4-22.85-6.03 11.96-14.05 23.195-25 31.125.07-13.91-.025-27.815.025-41.725 4.76-3.63 9.54-7.255 14.15-11.075-4.73-4.19-9.43-8.375-14.15-12.575.02-9.78-.02-19.58 0-29.35 10.65-.56 22.905-6.18 25.775-17.35 2-7.29 3.045-15.925-1.425-22.525-4.11-4.68-9.44-8.745-15.7-9.875-3.465-.302-7.12-1.666-10.6-1.5zM61.475 73.175c-.04 21.2.125 42.4-.075 63.6-3.54 1.39-7.02 2.91-10.5 4.45-6.42-9.29-10.41-20.225-12.25-31.325-.5-9.37 1.24-18.86 4.5-27.65 6.16-2.93 12.185-6.095 18.325-9.075zM1282.925 6.1c-1.715-.052-3.393.285-4.975 1.425 3.6.83 7.405 1.185 10.775 2.875 3 1.44 4.985 4.42 6.025 7.5.56 3.33-1.88 6.4-4.8 7.65-5.24 2.42-11.185 1.3-16.525-.15-12.8-3.92-25.265-8.99-38.325-12.05-6.71-1.43-13.745-2.78-20.525-1-7.35 2.07-14.81 5.59-19.15 12.15-5.6 7.23-6.305 17.175-3.575 25.675 2.25 5.67 6.81 11.245 13.25 11.975-2.1-2.7-5.715-5.425-4.675-9.275.58-3.82 2.165-7.695 5.225-10.175 3.06-2.31 7.25-2.28 10.8-1.25 13.02 2.42 25.73 6.075 38.6 9.125 8.72 1.85 17.095 5.105 25.875 6.725.15 9.83.035 19.66.075 29.5-4.72 4.17-9.44 8.335-14.1 12.575 4.7 3.63 9.315 7.35 14.075 10.9.07 13.99-.025 28 .075 42-8.26 6.19-19.13 7.715-29.15 6.325-11.07-.66-20.75-7.32-28.1-15.2 3.01-2.1 6.45-3.45 9.7-5.15 9.14-4.5 18.165-9.21 27.375-13.55.29-22.03.036-44.07.125-66.1-15.52 6.61-30.92 13.53-46.5 20 3.56-8.45 9.25-16.18 16.9-21.35 2.29-2.09 4.61-4.28 7.75-5-3.14.22-6.39.115-9.25 1.575-21.95 8.88-40.67 28.25-44.8 52.05-1.57 12.08-.445 24.625 3.775 36.075 5.41 13.44 14.935 25.38 27.325 33 5.93 3.61 12.3 6.515 18.95 8.525 15.92 2.65 32.995.36 46.925-8.1 9.19-6.41 17.725-14.72 21.575-25.5 4.13-9.15 5.79-19.145 6-29.125-1.92 2.51-3.045 5.495-4.675 8.175-5.29 8.88-12.135 16.925-20.475 23.075.1-13.95-.125-27.9.125-41.85 4.72-3.41 9.15-7.21 13.9-10.6-4.38-4.54-9.35-8.46-14-12.7-.09-9.78.11-19.57-.1-29.35 9.15-.59 18.405-4.695 23.325-12.725 5.12-8.25 5.09-19.49.15-27.8-3.89-5.14-10.005-8.45-16.325-9.4-2.837-.23-5.79-1.388-8.65-1.475zM1232.7 73.15c.12 21.16 0 42.315.05 63.475-3.61 1.51-7.175 3.105-10.775 4.625-5.22-7.34-9.285-15.595-11.375-24.375-2.31-11.5-1.7-23.965 3.65-34.575 6.2-2.96 12.31-6.06 18.45-9.15zm-743.71-60c5.96 10.44 2.23 24.59-6.74 32.11-5.51 3.59-11.85 5.57-18.06 7.58.14 42.7.02 85.41.04 128.11.44 1.95-1.35 3.48-3.19 2.7-3.63-.17-4.59-4-6.13-6.58-22.34-41.08-44.44-82.3-66.96-123.29-.43 30.15-.01 60.33-.21 90.49 10.64 2.01 21 7.14 27.96 15.6 3.23-2.5 5.32-6.9 9.46-7.91-1.05 1.91-2.58 3.48-4.04 5.08-8.05 8.91-16.08 17.86-24.12 26.79-3.73-4.7-8.7-9.16-14.92-9.8-4.09-.16-8.82.05-11.8 3.28-3.43 3.06-5.73 8.22-3.28 12.59 2.87 6.27 10.09 7.97 16.17 9.47-7.6 1.5-16.11.62-22.24-4.47-4.88-4.17-9.31-9.46-10.58-15.92-1.71-8.9.95-18.79 7.6-25.1 7.27-7.19 17.93-9.87 27.91-9.3.27-13.14.15-26.28.06-39.42-4.85-.77-11.46-.08-13.72 4.99-1.31 4.11 1.77 7.57 4.82 9.82-3.78-.66-7.98-1.38-10.71-4.31-3.22-3.97-5.72-8.66-6.65-13.72-.93-6.51.78-13.93 6.2-18.12 5.67-4.39 13.22-4.99 20.14-4.83V51.21c-2.51-3.77-4.92-8.09-9.23-10.04-2.82-1.17-6.5-1.59-8.93.61-3.36 2.85-4.17 7.38-5.5 11.35-1.29-9.69-.32-20.68 6.47-28.28 8.2-10.62 25.55-11.01 34.52-1.19 3.88 3.99 6.54 8.91 9.18 13.76 16.6 29.56 32.87 59.31 49.64 88.77.1-24.43.15-48.88-.02-73.31-2.88-1.12-6.09-1.09-9.02-2.11-5.46-1.44-10.01-4.96-14.05-8.77-2.52 2.96-5.06 5.91-7.41 9-.55-.3-1.64-.89-2.19-1.19 8.6-10.84 17.82-21.19 26.77-31.75 4.69 4.94 10.81 8.98 17.79 9.43 7.29-.84 14.46-6.67 14.97-14.34zm558.22 23.65c12-7.82 23.98-15.71 36.02-23.47.1 46.14-.09 92.29.1 138.43 2.6 3.54 6.15 6.45 9.3 9.56 1.98-2.12 4.04-4.15 6.08-6.2.48.48 1.44 1.44 1.93 1.91-9.61 8.33-18.92 16.98-28.59 25.22-6.09-6.25-12.39-12.28-18.43-18.56-2.71 2.41-5.19 5.05-7.74 7.62-.52-.4-1.56-1.21-2.08-1.61 4.61-4.41 9.55-8.45 14.21-12.82-.04-34.97.03-69.94-.04-104.9-.11-6.54-3.44-14.37-10.76-15.18zm-896.03 1.36c10.33-7.7 20.46-15.68 30.8-23.35.05 25.42-.01 50.85.03 76.28 8.75-7.22 17.57-14.35 26.23-21.67 6.95 7.21 13.44 14.87 20.6 21.85 3.02-2.17 6.12-4.23 9.29-6.17-.57 4.03-5.39 5.41-7.89 8.22.03 13.9 0 27.79.01 41.69.2 10.39-1.3 20.71-1.61 31.09-.47 11.26-4.84 22.77-13.62 30.16-7.14 6.38-16.9 8.68-26.21 9.45-.16.22-.5.67-.67.9l.25-.82c-3.21 0-6.41-.12-9.61-.36 4.02-2.08 8.57-3.41 11.74-6.85 3.64-4.06 7.88-7.93 9.67-13.24 2.93-8.1 3.02-16.83 3.31-25.33-.08-19.05.09-38.11-.09-57.15-4.24-5.53-9.32-10.41-13.82-15.75-2.46 2.63-5.41 4.84-7.52 7.76-.17 19.66-.02 39.33-.07 58.99 2.55 2.54 5.09 5.1 7.66 7.62 2.06-2.07 4.12-4.15 6.18-6.23.46.45 1.37 1.35 1.83 1.8-10 7.82-19.9 15.76-29.9 23.57-6.33-5.62-12.51-11.4-18.74-17.13-2.09 1.56-4.18 3.14-6.28 4.69-.45-.47-1.33-1.41-1.78-1.88 4.8-3.09 9.51-6.32 14.26-9.47-.01-34.96-.01-69.91 0-104.87-.1-2.67.03-5.55-1.38-7.93-.93-1.82-3.03-2.4-4.6-3.5-.35-1.16 1.31-1.65 1.93-2.37zM839.925 19.6c-9.4 7.61-18.59 15.455-27.9 23.175-.1-7.28.125-14.545-.125-21.825-1.44-.07-2.075.58-1.875 1.95-.05 51.46.015 102.915-.025 154.375-5.08-.97-10.17-1.985-15.2-3.125-.08-43.4-.005-86.79-.025-130.2-.11-5.49-1.89-11.01-5.5-15.2-4.5-5.33-11.535-7.805-18.325-8.275-8.05-.23-15.43 4-21.05 9.45-5.17 4.91-7.945 12.5-6.475 19.55.63-4.37 2.055-9.295 6.075-11.725 4.41-1.88 10.285-.365 12.925 3.775 2.26 3.34 2.485 7.515 2.575 11.425.02 11.73-.01 23.46 0 35.2-7.74.12-16.88 1.37-21.35 8.55-4.5 5.62-5.89 13.59-2.8 20.2 2.03 6.54 8.83 9.91 15.15 10.95-3.54-2.29-7.14-6.32-5.05-10.8 2.81-4.5 9.2-5.16 13.95-3.85.19 20.82.1 41.63.05 62.45-7.1 2.48-14.01 6.785-17.8 13.475-2.76 4.77-2.83 10.475-2.6 15.825.85 9.38 7.04 17.945 15.35 22.225 6.28 2.94 13.35 3.03 20.15 2.8 19.3-1.15 37.635-8.81 56.975-9.45 5.76-.43 9.135 5.935 7.625 10.925-1.15 4.51-4.93 7.56-8.5 10.2 6.79-1.44 13.55-3.99 18.85-8.6 5.98-5.07 8.73-13.245 8.35-20.925-.45-7.6-6.58-13.255-12.95-16.525-8.39-4.92-18.52-3.825-27.75-2.825-17.34 2-34.24 7.505-51.75 7.975-5.94.4-11.485-3.805-12.675-9.625-1.34-5.61 3.215-10.515 7.825-12.925 9.98-4.71 21.465-2.965 31.875-.775 12.07 1.26 23.395 6.185 35.475 7.425 6.86.78 14.145-.54 19.775-4.7 5.8-3.58 8.415-10.555 8.575-17.125.07-40.96-.075-81.915.075-122.875 3.74-3.25 7.865-6.165 11.125-9.925-4.56 1.13-7.42 5.405-11.15 8.025-7.37-6.13-14.585-12.42-21.875-18.65zm-20.45 20.7c4.2 3.6 8.335 7.27 12.525 10.9.01 12.9-.03 25.8 0 38.7-1.99 1.96-4.165 4.03-7.075 4.4-4.74 1-9.355-1.345-12.925-4.275.02-15.06.01-30.115 0-45.175 2.5-1.5 4.995-3 7.475-4.55zM812 93.6c6.14 3.12 14.04 4.065 20 .025-.02 5.85-.02 11.725 0 17.575-2.42-2.36-5.53-4.235-9-4.225-4.08-.09-7.83 1.835-11 4.225.02-5.86-.01-11.73 0-17.6zm10.95 15.225c3.96.1 7 3.055 9.05 6.175-.03 16.33.01 32.67 0 49 .32 5.01-3.13 9.295-6.9 12.175-3.64 2.89-8.58 2.99-13 2.75-.25-21.33-.01-42.695-.1-64.025 2.86-3.11 6.48-6.135 10.95-6.075zm492.31-62.605c6.48-5.68 12.58-11.78 19.2-17.3 5.6 5.91 11.5 11.53 17.19 17.35-6.83 6.39-13.7 12.73-20.62 19.02-5.23-6.39-10.61-12.63-15.77-19.07zm-747.9 6.08c4.05-2.78 9.17-2.61 13.85-3.21-3.53 2.79-7.45 6.03-7.93 10.84-.79 4.3 1.93 8.17 5.1 10.75 5.77 4.62 13.18 7.2 17.88 13.12 2.26 2.86 3.63 6.48 3.53 10.15-.03 19.4.02 38.79-.03 58.18 5.16 4.17 10.34 8.29 15.49 12.46 1.5-.97 3-1.94 4.51-2.91-.07-21.17.11-42.35-.09-63.51-2.65-3.13-6.32-5.37-9.35-8.16 7.44-6.85 14.73-13.88 22.32-20.56 6.6 6.48 13.54 12.61 20.31 18.91-2.57 2.73-5.22 5.36-7.93 7.94-.05 18.61 0 37.22-.03 55.83 6.76 5.24 13.52 10.49 20.35 15.65.96-.56 1.93-1.11 2.92-1.66-.1-22.73.01-45.45-.06-68.18-3.13-2.67-6.37-5.22-9.46-7.94 7.3-6.9 14.69-13.68 22.03-20.53 7.31 5.72 14.63 11.44 21.9 17.21 2.52-2.78 5.1-5.54 7.98-7.97.37.53 1.13 1.6 1.5 2.13-6.22 5.54-12.4 11.15-18.43 16.9-.52 18.12-.01 36.3-.25 54.43-15.83 10.4-32.36 19.89-48.42 30.01-8.47-6.07-16.7-12.47-25.06-18.68-7.5 6.03-15.01 12.07-22.56 18.04-1.08 1.2-2.19-.55-3.08-1.05-7.06-5.67-14.08-11.39-21.23-16.93-3 2.62-6.15 5.07-9.16 7.69-.48-.46-1.42-1.37-1.9-1.82 3.67-2.54 7.26-5.21 10.93-7.75.02-17.57.02-35.13 0-52.7-.01-4.7-1.66-9.46-4.87-12.94-3.53-3.83-8.28-6.52-11.09-11.01-3.11-5.22-3.39-11.69-2.2-17.52 1.74-6.59 6.97-11.61 12.53-15.21zM1680.3 64.85c.72 1.84.95 3.895.05 5.725-2.21 5.05-8.23 6.99-13.35 6.9-5.36-.48-9.54-4.335-13.15-7.975-6.06 4.06-12.15 8.09-18.2 12.15-6.98 4.7-14.685 8.17-22.425 11.4-.03 9.94.008 19.86-.025 29.8 5.65 4.71 11.46 9.21 17 14.05-4.25 4.5-8.44 9.065-12.45 13.775-4.12 4.96-8.01 10.69-8.25 17.35-.24 7.57 3 15.765 9.7 19.775 2.96 1.74 6.56 3.29 10 1.95-4.28-1.53-9.545-4.63-9.175-9.85 1.19-4.94 7.055-8.245 11.925-6.825 5.05 1.44 9.22 5.05 12.45 9.1 12.98-9.35 26.65-17.705 40.85-25.075-.11-12.61.175-25.25-.125-37.85-6.27-4.4-12.25-9.195-18.45-13.675 6.56-8.31 13.16-17.1 15.9-27.5 1.02-4.39 1.365-9.925-2.275-13.225zm-41.8 18.9c4.21 6.05 9.785 11.935 17.425 13.175 7.61 1.79 14.985-2.335 19.975-7.825-6.83 12.63-17.425 22.77-28.375 31.85-2.96-3.14-6.145-6.065-9.075-9.225.12-9.32.02-18.655.05-27.975zm10.725 37.7c3.28 2.76 6.52 5.57 9.8 8.35 1.5.9.765 2.78.975 4.2-.09 10.83.135 21.695-.125 32.525-2.45-5.54-6.12-10.695-11.3-13.975-7.51-4.91-17.835-5.195-25.475-.425-3.5 1.94-6.3 4.835-8.95 7.775 3.79-7.4 9.915-13.24 15.675-19.1 6.58-6.34 13.16-12.67 19.4-19.35zM298.875 69.475c-8.64 5-16.99 10.455-25.45 15.725-7.17 3.74-14.455 7.27-21.675 10.9.03 20.25-.03 40.5.05 60.75-3.08 2.39-6.675 4.11-9.475 6.85.54.32 1.61.97 2.15 1.3 2.42-2.09 4.815-4.22 7.475-6 8.95 7.44 17.395 15.495 26.325 22.975.44-.23 1.325-.695 1.775-.925 15.12-11.72 30.395-23.265 45.525-34.975l-1.875-1.65c-8.42 6.56-16.61 13.465-24.95 20.125-6.89-6.2-13.555-12.645-20.425-18.875-2.34-1.71-1.03-4.955-1.2-7.375 14.11-10.33 28.225-20.665 42.125-31.275-6.94-12.44-13.655-24.99-20.375-37.55zm-21.8 14.925c7.14 11.73 14.315 23.42 21.375 35.2-7.18 5.05-14.3 10.16-21.4 15.3-.07-16.83-.105-33.67.025-50.5zm255.65-14.95c-6.09 4.01-12.22 7.97-18.45 11.75-9.11 5.7-18.985 9.99-28.525 14.9.03 20.24-.055 40.485.025 60.725-2.94 2.19-6.19 3.925-9.05 6.225.3.53.925 1.595 1.225 2.125 3.17-2.13 6.3-4.315 9.55-6.325 8.19 7.83 16.5 15.54 24.75 23.3 15.43-11.46 30.57-23.33 45.85-35 1.96-.4.35-3.58-.9-2.35-8.28 6.42-16.315 13.17-24.475 19.75-6.4-6.35-12.755-12.73-19.125-19.1-2.06-1.81-.84-4.83-.95-7.2 13.58-10.08 26.74-20.735 40.35-30.775-6.27-12.9-13.605-25.315-20.275-38.025zm-20.25 15.35c7 11.4 13.415 23.18 19.875 34.9-6.67 4.89-13.115 10.08-19.725 15.05-.31-16.64 0-33.3-.15-49.95zm414.7-15.3c-6.68 3.89-13.27 7.9-19.75 12.1-7.61 4.64-15.925 7.935-24.025 11.575.19 21.24.055 42.485.075 63.725-2.71 2.7-5.445 5.39-8.075 8.15.55-.03 1.65-.11 2.2-.15 1.92-2.05 3.92-4.05 5.9-6.05 9.09 7.44 18.045 15.04 27.075 22.55 1.49 1.44 3.175-.705 4.625-1.225 14.52-7.94 28.24-17.295 43.2-24.425.23-19.79.07-39.575.1-59.375 2.7-2.7 5.435-5.39 8.075-8.15-.53.01-1.585.055-2.125.075-2.52 2.07-5.07 4.085-7.6 6.125-9.9-8.3-19.755-16.665-29.675-24.925zM910.25 84.175c7.14 6.71 14.41 13.32 21.55 20.05-.07 21.07-.05 42.13-.05 63.2-7.32-6.42-14.27-13.23-21.5-19.75v-63.5z"/><path fill="#999" d="M1084.48 116.7c10.3-15.81 20.82-31.48 31.38-47.13 4.54 3.87 10.24 6.3 16.19 6.9 5.84.01 10.82-3.46 15.22-6.93-1.11 8.53-3.95 17.39-10.5 23.32-5.71 5.24-14.37 6.5-21.56 3.94-4.24-1.44-8.16-3.7-11.67-6.47-.62 1.46-1.13 2.97-1.5 4.51 14.62 22.02 28.98 44.24 43.34 66.44 3.3-2.14 6.19-4.84 9.1-7.47.57.36 1.7 1.08 2.27 1.44-10.33 9.21-20.99 18.05-31.58 26.97-13.61-21.81-26.92-43.81-40.69-65.52zm494.595-47.225c-6.36 3.87-12.745 7.735-19.025 11.725-8.69 6.04-18.655 9.8-27.875 14.9.1 20.24 0 40.495.05 60.725-3.18 2.1-6.32 4.24-9.5 6.3.41.5 1.24 1.525 1.65 2.025 2.74-2.03 5.215-4.44 8.175-6.2 8.25 7.67 16.88 14.925 25.25 22.475.8 1.28 1.965-.03 2.775-.55 15.08-11.62 30.2-23.17 45.3-34.75-1.77-3.1-3.78-.095-5.55 1.175-7.09 5.77-14.165 11.535-21.275 17.275-7.27-6.63-14.29-13.505-21.7-19.975-.11-2.08-.125-4.17-.025-6.25 14.15-10.25 28.135-20.74 42.175-31.15-6.76-12.61-13.545-25.195-20.425-37.725zM1557.25 84.75c7.65 11.31 14.37 23.26 21.55 34.9-7.28 4.99-14.36 10.27-21.6 15.3.12-16.73.01-33.47.05-50.2zM995.5 71.14c5.72 5.21 10.53 11.35 15.84 16.98 5.78-5.54 11.43-11.24 17.01-16.99 4.06 2.6 8.29 6.25 13.5 5.2 3.67-.25 5.58-3.85 8.7-5.32.01 7.65-1.75 15.69-6.81 21.63-5.8 6.94-16.77 8.97-24.53 4.21-2.98-1.45-4.96-4.23-7.74-5.94.07 20.92.04 41.83.02 62.75 4.12 3.17 8.25 6.33 12.49 9.35 3.08-2.02 5.45-5.74 9.34-6.09-9.14 8.7-18.72 16.98-28.25 25.27-7.16-6.75-14.48-13.33-21.56-20.16-2.76 2.48-5.31 5.18-7.94 7.79-.42-.49-1.26-1.46-1.68-1.95 3.47-3.86 7.34-7.34 10.89-11.13-.13-17.9.07-35.8-.09-53.69-1.9-4.52-5.2-8.44-7.59-12.76-3.27 1.93-5.65 5.95-9.72 6.09 9.25-8.55 18.92-16.64 28.12-25.24zm371.07 22.38c8.51-7.45 16.84-15.09 25.4-22.48 6.14 6.77 12.49 13.35 18.52 20.22 9.04-6.53 17.72-13.55 26.67-20.22 6.27 6.72 12.42 13.55 18.75 20.22 8.87-6.72 17.63-13.58 26.56-20.21 6.1 6.8 12.39 13.43 18.56 20.17 3.78-2.41 7.25-5.3 11.1-7.61.29 2.24-1.75 3.26-3.17 4.5-2.06 1.66-4.06 3.4-6.12 5.05-.17 18.62.04 37.24-.11 55.86 3.55 3.68 7.17 7.3 10.86 10.84 1.95-2.03 3.95-4.02 5.85-6.1.57.36 1.72 1.07 2.29 1.43-9.33 9.19-18.95 18.1-28.53 27.03-6.75-7.97-13.83-15.68-20.42-23.79 1.6-1.47 3.16-3 4.7-4.54.02-16.06 0-32.12 0-48.17-5.1-5.69-10.18-11.4-15.44-16.94-1.52 1.55-3.04 3.09-4.54 4.65-.02 20.08.08 40.16-.05 60.24 2.53 2.84 5.38 5.38 7.95 8.21-6.91 6.13-13.57 12.55-20.44 18.74-6.42-6.75-12.74-13.6-18.95-20.53 1.77-2.18 5.32-3.76 4.76-7.08-.08-15.66.08-31.33-.08-46.98-4.28-5.96-9.08-11.73-14.04-17.17-1.45 1.54-2.92 3.05-4.4 4.56.04 19.45-.11 38.91.07 58.36 2.1 3.58 5.23 6.51 7.84 9.74-6.71 7.05-13.64 13.9-20.63 20.67-6.68-7.96-13.6-15.71-20.33-23.62 2.1-1.63 4.22-3.24 6.33-4.87-.06-16.43-.12-32.87.03-49.3-3.94-4.88-8.26-9.44-12.4-14.15-2.94 2.18-5.53 4.92-8.89 6.46-.16-1.53 1.35-2.26 2.3-3.19z"/><path fill="#999" d="M1307.38 94.81c8.8-8.06 17.91-15.81 26.8-23.78 6.33 7.2 12.48 14.56 18.78 21.79 3.27-2.56 6.2-5.6 9.82-7.71-.27 1.15-.58 2.34-1.65 2.99-2.71 2.25-5.4 4.51-8.13 6.7.04 18.65-.08 37.29.06 55.94 3.56 4.02 7.24 7.96 10.56 12.2 2.77-1.69 5.08-4 7.72-5.88.56.3 1.69.89 2.25 1.18-8.79 8.24-17.91 16.14-27.07 23.95-6.09-7.32-12.34-14.52-18.57-21.73-2.71 2.46-4.97 5.44-7.94 7.58-.42-.39-1.26-1.19-1.68-1.59 2.64-2.5 5.13-5.16 7.81-7.64.21-16.94.01-33.9.1-50.84-.16-2.36.6-5.15-1.24-7.03-3.26-4.05-6.26-8.31-9.73-12.18-2.58 2.09-5.03 4.36-7.89 6.05z"/></svg>