<svg xmlns="http://www.w3.org/2000/svg" viewBox="0 0 320.19337 111.8626"><defs><clipPath id="a"><path d="M0 0h612v792H0V0z"/></clipPath></defs><g clip-path="url(#a)" transform="matrix(2.42287 0 0 -2.42287 -187.863 1343.238)"><path d="M192.262 534.444h-10.67l2.06 8.682h-3.803l-2.06-8.682H174.3l-.158-.676h3.486l-4.595-19.224c-.263-1.07-.58-2.198-.58-3.438 0-1.523.95-2.875 3.063-2.875 3.803 0 5.704 5.357 5.916 5.977l-.528.226c-.37-.902-1.85-4.397-3.645-4.397-.737 0-1.054.45-1.054 1.352 0 .564.105 1.128.264 1.748l4.91 20.633h6.973l-4.648-19.225c-.264-1.014-.58-2.254-.58-3.326 0-1.58.95-2.988 3.116-2.988 3.804 0 5.706 5.356 5.917 5.976l-.528.226c-.37-.846-1.9-4.397-3.593-4.397-.95 0-1.11.563-1.11 1.41 0 .563.107 1.07.265 1.69l5.072 21.31zm-25.406-24.41c-.95 0-1.162.563-1.162 1.297 0 .566.105 1.186.264 1.806l3.38 13.98c.317 1.297.634 2.424.634 3.946 0 1.693-1.056 3.835-4.067 3.835-3.433 0-5.282-2.988-6.02-4.284l.897 3.833h-7.237l-.21-.676h3.432l-6.02-25.03h3.802l4.12 16.97c.95 3.833 3.167 7.78 5.702 7.78 1.532 0 2.007-1.072 2.007-2.087 0-.902-.265-1.86-.53-2.987l-3.326-13.868c-.212-.902-.58-2.48-.58-3.552 0-1.523.95-2.763 3.062-2.763 3.803 0 5.705 5.355 5.97 5.975l-.53.226c-.528-1.126-1.954-4.396-3.59-4.396m-21.656 3.097l5.123 21.31h-3.802l-.633-2.763c-.158.564-.633 3.326-4.014 3.326-4.49 0-6.708-3.946-8.134-7.892-.846-2.368-2.59-8.287-2.694-12.29-.16-4.284 1.795-6.595 4.86-6.595 2.904 0 4.752 3.1 5.44 4.68-.054-.225-.16-1.07-.16-1.69-.052-1.58 1.004-2.988 3.064-2.988 3.96 0 5.704 5.413 5.915 5.976l-.528.226c-.37-.902-1.796-4.397-3.645-4.397-.792 0-1.11.563-1.056 1.522 0 .393.106.957.264 1.577m-3.01 3.72c-1.216-4.114-3.117-7.272-5.388-7.272-1.585 0-2.324 1.015-2.272 3.27.16 5.017 2.906 13.98 3.54 15.954 1.056 3.325 2.535 5.24 4.436 5.24 1.743 0 2.59-1.634 2.536-3.495-.106-2.762-1.32-8.287-2.853-13.698m-16.956-6.823c-.792 0-1.056.45-1.056 1.353 0 .564.053 1.07.21 1.747l9.825 40.364h-7.342l-.156-.677h3.433l-9.19-38.275c-.264-1.128-.58-2.312-.58-3.552 0-1.41.79-2.762 2.956-2.762 3.91 0 5.81 5.187 6.075 5.976l-.528.226c-.37-.958-1.956-4.396-3.646-4.396m66.87 33.99c-1.268 0-2.166-1.07-2.166-2.592 0-1.24.793-2.255 1.955-2.255 1.215 0 2.165 1.07 2.165 2.535 0 1.296-.792 2.31-1.954 2.31m12.466-9.017c-4.544 0-6.92-3.44-8.294-7.836-.898-2.82-2.323-7.385-2.323-12.458 0-2.593 1.11-6.483 5.915-6.483 5.018 0 7.183 6.71 7.5 7.5l-.686.34c-.687-1.75-2.536-6.37-5.757-6.37-2.06 0-3.17 1.69-3.17 4.846 0 4.566 1.32 9.3 2.483 13.022 1.426 4.566 2.324 6.708 4.436 6.708 1.374 0 2.22-.676 2.22-1.578 0-1.297-.793-1.917-.793-3.1 0-1.072.74-1.86 1.69-1.86 1.164 0 1.903 1.014 1.903 2.65 0 1.69-.897 4.62-5.123 4.62m-90.164-24.974c-.687 0-1.11.45-1.11 1.353 0 .45.107 1.127.265 1.747l4.967 20.633h4.067l.158.676h-4.065l2.112 8.683h-3.804l-2.113-8.682h-3.115l-.158-.676h3.116l-4.595-19.223c-.264-1.072-.58-2.143-.58-3.552 0-1.353.79-2.762 2.957-2.762 4.015 0 5.758 5.244 6.075 5.977l-.53.226c-.37-.902-1.9-4.397-3.644-4.397M81.87 539.912H80.6l3.012 12.57h.528c1.374 0 1.69-.168 1.268-2.705h.317l.74 3.1h-7.078l-.74-3.1h.317c.792 2.143 1.11 2.706 2.536 2.706h.633l-3.01-12.57H77.96l-.105-.396h3.91l.104.395zm2.852-.394h1.32l1.373 5.637c.37 1.466 1.162 2.763 2.007 2.763.53 0 .688-.395.688-.677 0-.337-.107-.79-.213-1.183l-1.056-4.34c-.05-.17-.21-.902-.21-1.297 0-.564.265-1.07 1.004-1.07 1.374-.002 1.955 1.69 2.114 2.084l-.265.112c-.158-.394-.633-1.465-1.214-1.465-.213 0-.32.115-.32.453 0 .282.108.845.16 1.07l1.057 4.23c.106.45.21.9.21 1.408 0 .62-.37 1.354-1.425 1.354-1.108 0-1.848-1.07-2.06-1.41l1.374 5.695h-2.218l-.107-.396h.9l-3.117-12.966zm9.718-.17c1.743 0 2.588 2.142 2.747 2.593l-.317.17c-.317-.79-1.004-2.084-2.166-2.084-.687 0-1.056.507-1.056 1.41 0 .62.105 1.24.21 1.747 1.638.394 4.385 1.86 4.385 3.89 0 .9-.475 1.52-1.585 1.52-2.06 0-4.278-3.55-4.278-6.933 0-1.24.475-2.312 2.06-2.312m2.218 8.85c.476 0 .634-.225.634-.676 0-1.466-1.426-3.326-3.328-3.89.476 2.368 1.69 4.567 2.694 4.567" fill="#999"/></g><path d="M75.506 0L6.016 108.995H.386L0 110.635h17.406l.383-1.64H8.06L34.717 67.2H59.59l-4.43 41.795h-8.193l-.383 1.64h25.34l.384-1.64H65.14L76.66 0h-1.154zM59.78 65.425H35.85l28.395-44.528h.257L59.78 65.425z" fill="#999"/></svg>