<svg xmlns="http://www.w3.org/2000/svg" width="180" height="58"><path d="M111.228.863c-5.993.3-11.43 2.352-15.847 4.31-1.245.553-3.394 2.17-4.586 2.218-1.404.06-3.962-1.354-5.86-1.9-8.394-2.417-21.166-5.56-27.706-.476-8.214-1.19-15.786.846-22.007 2.692-.35-4.914-4.94-7.858-10.29-6.334-3.58 1.018-6.516 3.038-10.132 4.436C7.716 8.54.562 14.36 1.02 23.538 1.24 27.856 3.118 31.37 4.35 34.46c1.283 3.223 2.627 5.794 4.75 9.5-.584 1.09-1.103 1.784-1.268 3.01-1.376 10.288 12.374 10.626 19.633 7.598 6.26-2.617 12.823-7.248 17.26-10.607-3.56 15.237 20.37 15.91 26.438 8.234 8.533 6.375 26.972 5.668 36.096.315 8.426 6.786 27.115 4.2 38.473 1.583 5.872-1.354 11.05-2.445 14.885-5.222 3.923-2.847 6.38-7.208 7.435-12.823-.805-2.15-2.18-3.723-3.482-5.385.65-1.363.836-3.837.48-5.7 4.963-3.554 9.096-9.09 12.823-13.773.445-.562 1.295-1.295 1.102-2.06-16.983-2.645-33.36-7.924-53.032-6.964-1.242.06-2.648.418-3.8.315-1.696-.152-3.156-.994-4.748-1.264-2.105-.358-4.166-.452-6.164-.353z" fill="#999"/><path d="M112.27 7.105c-7.683.155-14.865 3.984-20.526 7.09-6.036 3.312-11.424 7.2-15.203 11.082 1.367-2.328 2.82-4.628 4.437-6.804 1.64-2.21 3.467-4.208 4.91-6.176-3.156-.825-6.32-1.7-9.504-2.377-4.525-.963-10.816-2.558-14.565-.475-1.084.602-1.97 2.084-3.007 2.217-.856.112-2.27-.51-3.326-.63-3.868-.43-7.426-.073-10.922.63-3.274.656-10.198 1.822-11.083 4.908-.57 1.982.695 3.9.473 5.86-.217 1.928-2.068 4.475-3.008 6.013-1.15 1.885-2.32 3.556-4.275 4.432-1.185-5.899.103-11.14 1.107-16.143.62-3.082 1.873-6.237.795-9.34-3.018-.42-5.56 1.968-8.55 3.163C14.41 12.803 8.153 14.848 7.36 21.32c-.448 3.644.92 5.965 1.898 8.553 2.095 5.56 4.684 10.265 7.758 14.563-.84 1.54-2.813 1.942-3.012 4.113.893 1.264 2.758 1.427 4.596 1.427 5.312-.012 9.667-2.687 13.613-4.91 8.592-4.833 14.363-12.276 20.424-19.315 1.064-1.237 1.94-2.727 3.326-3.48 1.36 6.255-1.286 9.595-3.17 14.72-.726 1.975-3.018 8.155-1.9 11.082 1.22 3.22 11.644 3.36 14.408 1.272 1.393-1.05 1.95-3.432 2.698-4.91.953-1.902 1.777-3.545 2.53-5.225.042 6.936 5.195 8.973 10.765 10.45 11.84 3.13 23.777-2.46 30.234-6.33-.807 5.138 1.194 5.652 5.23 6.49 10.442 2.155 20.954-.33 29.446-2.377 7.785-1.874 14.048-3.2 15.2-10.925-1.244-1.078-4.36-.945-6.493-.63-6.277.918-12.357 4.093-20.738 3.48-1.53-.11-4.83-.644-5.068-1.58-.368-1.462 2.248-2.485 4.44-2.85 6.28-1.064 15.362.01 20.417-1.903 2.43-.916 5.358-3.56 5.063-6.49-.192-1.978-2.77-3.012-5.22-3.162-6.928-.434-11.88 3.607-19.153 2.213.91-1.15 1.073-3.04 2.215-3.957 5.317-.112 10.482.946 15.514.633 6.996-.437 10.942-3.385 14.25-7.283.354-.42 1.242-.874.95-1.584-12.152-1.848-28.72-6.746-43.7-4.91-1.938.234-3.33 2.26-4.605 3.057.002-.017.018-.023.012-.05.243-1.08.7-1.94.793-3.163-2.634-.928-5.25-1.285-7.81-1.233v-.002zm5.912 7.725c1.48 1.687 4.72 1.615 6.646 2.852-2.6.668-5.877.665-8.234 1.58.555-1.452 1.055-2.96 1.588-4.432zm-18.37 5.856c-.778 3.55-2.407 7.618-3.322 11.556 5.033.07 10.34-.952 15.516-1.263.7-.937 1.043-2.228 1.426-3.484 1.036 1.47 1.768 4.216.793 6.33-7.86-.11-13.51 6.324-21.217 6.334-3.453.004-6.385-1.984-4.75-5.86 2.308-5.468 8.03-9.287 11.555-13.614z" fill="#fff"/></svg>